<?xml version="1.0" encoding="UTF-8"?>
<svg id="Layer_1" data-name="Layer 1" xmlns="http://www.w3.org/2000/svg" viewBox="0 0 52 52">
  <defs>
    <style>
      .cls-1 {
        fill: none;
      }

      .cls-2 {
        fill: #0360e6;
      }

      .cls-3 {
        fill: #161641;
      }
    </style>
  </defs>
  <path class="cls-1" d="M30.6,17.71c0,.67-.46,1.26-1.11,1.44-5.69,1.53-9.21,5.05-10.74,10.74-.18.66-.77,1.11-1.45,1.11h-.03c-.69-.01-1.28-.5-1.43-1.17-.18-.78-.42-1.51-.71-2.22-.31,1.26-.49,2.58-.49,3.93,0,.13.02.25.02.38,1.2,1.13,2.74,1.97,4.64,2.51.65.18,1.1.78,1.09,1.45s-.46,1.26-1.11,1.44c-1.14.31-2.14.75-3.03,1.29,2.65,5.57,8.32,9.43,14.89,9.43,2.36,0,4.63-.49,6.76-1.44.38-.17.79-.25,1.26-.25,1.11,0,2.52.43,4.42,1.03.95.3,2.39.76,3.26.9-.2-.7-.62-1.72-.9-2.42-.95-2.32-1.71-4.16-.87-5.47,1.69-2.64,2.58-5.71,2.58-8.86,0-9.1-7.4-16.5-16.5-16.5-1.31,0-2.58.17-3.8.46.69.28,1.41.54,2.17.75.65.18,1.1.78,1.09,1.45ZM39.53,36.4h-16.56c-.69,0-1.25-.56-1.25-1.25s.56-1.25,1.25-1.25h16.56c.69,0,1.25.56,1.25,1.25s-.56,1.25-1.25,1.25ZM43.55,31.01c0,.69-.56,1.25-1.25,1.25h-19.34c-.69,0-1.25-.56-1.25-1.25s.56-1.25,1.25-1.25h19.34c.69,0,1.25.56,1.25,1.25ZM39.26,25.71c.69,0,1.25.56,1.25,1.25s-.56,1.25-1.25,1.25h-16.3c-.69,0-1.25-.56-1.25-1.25s.56-1.25,1.25-1.25h16.3Z"/>
  <path class="cls-1" d="M32.95,5.25c0-1-.81-1.81-1.81-1.81s-1.81.81-1.81,1.81.81,1.81,1.81,1.81,1.81-.81,1.81-1.81Z"/>
  <path class="cls-3" d="M31.14,7.07c-1,0-1.81-.81-1.81-1.81s.81-1.81,1.81-1.81,1.81.81,1.81,1.81-.81,1.81-1.81,1.81c.69,0,1.25.56,1.25,1.25v1.04c1.77-.54,3.06-2.17,3.06-4.11,0-2.38-1.93-4.31-4.31-4.31s-4.31,1.93-4.31,4.31c0,1.94,1.3,3.57,3.06,4.11v-1.04c0-.69.56-1.25,1.25-1.25Z"/>
  <path class="cls-3" d="M32.39,12.1v-3.79c0-.69-.56-1.25-1.25-1.25s-1.25.56-1.25,1.25v3.79c.42-.03.83-.06,1.25-.06s.83.04,1.25.06Z"/>
  <path class="cls-3" d="M39.53,33.9h-16.56c-.69,0-1.25.56-1.25,1.25s.56,1.25,1.25,1.25h16.56c.69,0,1.25-.56,1.25-1.25s-.56-1.25-1.25-1.25Z"/>
  <path class="cls-3" d="M21.71,31.01c0,.69.56,1.25,1.25,1.25h19.34c.69,0,1.25-.56,1.25-1.25s-.56-1.25-1.25-1.25h-19.34c-.69,0-1.25.56-1.25,1.25Z"/>
  <path class="cls-3" d="M21.71,26.96c0,.69.56,1.25,1.25,1.25h16.3c.69,0,1.25-.56,1.25-1.25s-.56-1.25-1.25-1.25h-16.3c-.69,0-1.25.56-1.25,1.25Z"/>
  <path class="cls-3" d="M47.7,41.83c1.92-3.09,2.93-6.64,2.93-10.29,0-10.33-8.08-18.79-18.25-19.44-.42-.03-.83-.06-1.25-.06s-.83.04-1.25.06c-2.14.14-4.2.61-6.1,1.39,1.04.79,2.22,1.47,3.55,2.01,1.22-.29,2.49-.46,3.8-.46,9.1,0,16.5,7.4,16.5,16.5,0,3.15-.89,6.22-2.58,8.86-.84,1.31-.08,3.15.87,5.47.28.69.71,1.72.9,2.42-.87-.13-2.31-.59-3.26-.9-1.89-.61-3.3-1.03-4.42-1.03-.47,0-.89.08-1.26.25-2.13.96-4.4,1.44-6.76,1.44-6.57,0-12.23-3.87-14.89-9.43-.91.55-1.69,1.23-2.34,2.04,3.28,6.17,9.77,10.39,17.23,10.39,2.78,0,5.47-.58,7.92-1.68.53-.1,2.46.51,3.61.88,1.74.56,3.32,1.07,4.61,1.07.77,0,1.44-.19,1.96-.66,1.39-1.26.51-3.42-.52-5.92-.36-.88-.96-2.33-1-2.89Z"/>
  <path class="cls-3" d="M14.66,31.92c0-.13-.02-.25-.02-.38,0-1.36.18-2.67.49-3.93-.51-1.23-1.19-2.35-2.06-3.37-.43,1.06-.78,2.16-1.02,3.31.53,1.78,1.39,3.23,2.6,4.38Z"/>
  <path class="cls-2" d="M15.84,29.82c.15.67.74,1.16,1.43,1.17h.03c.68,0,1.27-.45,1.45-1.11,1.53-5.69,5.05-9.21,10.74-10.74.65-.17,1.11-.76,1.11-1.44s-.44-1.27-1.09-1.45c-.77-.22-1.49-.47-2.17-.75-1.33-.55-2.51-1.22-3.55-2.01-2.5-1.91-4.17-4.54-5.03-7.96-.17-.67-.77-1.13-1.45-1.13h-.02c-.69,0-1.29.49-1.45,1.16-1.3,5.58-4.81,9.07-10.73,10.69-.63.17-1.08.74-1.1,1.39s.38,1.25,1,1.47c3.54,1.26,6.22,2.96,8.07,5.13.87,1.02,1.55,2.14,2.06,3.37.29.7.53,1.44.71,2.22ZM9.55,17.81c3.54-1.67,6.15-4.18,7.79-7.52,1.64,3.24,4.16,5.71,7.53,7.39-3.35,1.66-5.88,4.17-7.55,7.51-1.6-3.06-4.2-5.53-7.77-7.38Z"/>
  <path class="cls-2" d="M16.25,38.61c.89-.54,1.89-.98,3.03-1.29.65-.18,1.11-.76,1.11-1.44s-.44-1.27-1.09-1.45c-1.91-.54-3.44-1.38-4.64-2.51-1.21-1.14-2.07-2.6-2.6-4.38-.05-.16-.11-.32-.15-.49-.17-.67-.77-1.13-1.45-1.13h-.02c-.69,0-1.29.49-1.45,1.16-.89,3.83-3.3,6.23-7.38,7.34-.63.17-1.08.74-1.1,1.39s.38,1.25,1,1.47c4.26,1.51,6.71,3.92,7.49,7.36.15.67.74,1.16,1.43,1.17h.03c.68,0,1.27-.45,1.45-1.11.43-1.61,1.11-2.95,2.01-4.06.65-.81,1.44-1.48,2.34-2.04ZM10.45,40.36c-1.07-1.75-2.62-3.22-4.64-4.39,2.01-1.09,3.57-2.6,4.66-4.5,1.08,1.83,2.57,3.3,4.48,4.39-1.91,1.09-3.41,2.59-4.51,4.5Z"/>
</svg>