<?xml version="1.0" encoding="UTF-8"?>
<svg id="Layer_1" data-name="Layer 1" xmlns="http://www.w3.org/2000/svg" viewBox="0 0 52 52">
  <defs>
    <style>
      .cls-1 {
        fill: none;
      }

      .cls-2 {
        fill: #0360e6;
      }

      .cls-3 {
        fill: #161641;
      }
    </style>
  </defs>
  <path class="cls-1" d="M8.64,24.75c.06-2.77.35-5.54.89-8.28-.9-.28-1.8-.6-2.7-.94-1.73,2.69-2.8,5.84-3.01,9.21h4.83Z"/>
  <path class="cls-1" d="M24.47,14c2.17-1.96,4.86-3.33,7.85-3.88-.18-.52-.35-1.03-.54-1.55,0-.01,0-.03,0-.04-2.23-1.1-4.69-1.77-7.3-1.94v7.41Z"/>
  <path class="cls-1" d="M19.22,24.75c.16-2.2.75-4.28,1.71-6.15-2.98-.17-5.98-.65-8.99-1.43-.48,2.51-.74,5.04-.79,7.58h8.07Z"/>
  <path class="cls-1" d="M8.65,27.25H3.81c.22,3.37,1.28,6.51,3,9.2.92-.36,1.84-.69,2.76-.98-.54-2.75-.85-5.49-.93-8.21Z"/>
  <path class="cls-1" d="M21.97,35.86c-3.17.08-6.33.53-9.45,1.35.49,2.04,1.12,4.08,1.87,6.13,2.3,1.18,4.86,1.9,7.58,2.08v-9.55Z"/>
  <path class="cls-1" d="M21.97,16.13V6.59c-2.72.17-5.28.9-7.58,2.08-.78,2.01-1.41,4.03-1.91,6.06,3.18.83,6.34,1.3,9.49,1.41Z"/>
  <path class="cls-1" d="M10.08,14.02c.26-1.05.56-2.1.9-3.14-.95.77-1.82,1.63-2.61,2.56.57.21,1.15.39,1.72.58Z"/>
  <path class="cls-1" d="M10.12,37.92c-.59.19-1.19.4-1.78.62.81.96,1.71,1.84,2.68,2.62-.34-1.08-.64-2.16-.9-3.24Z"/>
  <path class="cls-1" d="M31.78,43.41c.22-.58.43-1.16.63-1.74-3.03-.53-5.75-1.92-7.94-3.89v7.63c2.61-.17,5.07-.84,7.3-1.94,0-.02,0-.04,0-.06Z"/>
  <path class="cls-1" d="M19.23,27.25h-8.07c.08,2.49.35,5,.83,7.51,2.99-.78,6.01-1.24,9.04-1.38-.98-1.86-1.61-3.93-1.8-6.13Z"/>
  <path class="cls-3" d="M48.89,34.27c1.54-2.52,2.36-5.41,2.36-8.38,0-7.4-5.04-13.63-11.86-15.47-4.09-4.24-9.83-6.89-16.17-6.89C10.83,3.53.75,13.61.75,26s10.08,22.47,22.47,22.47c6.49,0,12.34-2.77,16.45-7.18.68-.2,1.36-.43,2.02-.72h.03c.51,0,1.88.44,2.71.71,1.43.46,2.73.88,3.82.88.69,0,1.29-.17,1.77-.61,1.28-1.16.52-2.99-.35-5.11-.27-.65-.69-1.69-.78-2.17ZM45.35,38.42c-1.55-.5-2.72-.85-3.66-.85-.42,0-.79.07-1.13.22-1.69.76-3.48,1.14-5.35,1.14-7.19,0-13.05-5.85-13.05-13.05s5.85-13.05,13.05-13.05,13.05,5.85,13.05,13.05c0,2.49-.7,4.91-2.04,7-.76,1.19-.12,2.73.68,4.68.17.41.4.98.57,1.46-.66-.15-1.52-.43-2.12-.62ZM14.39,43.34c-.76-2.05-1.38-4.09-1.87-6.13,3.13-.82,6.28-1.26,9.45-1.35v9.55c-2.71-.17-5.28-.9-7.58-2.08ZM3.81,27.25h4.84c.08,2.73.39,5.47.93,8.21-.92.3-1.84.63-2.76.98-1.72-2.69-2.79-5.83-3-9.2ZM6.82,15.54c.9.34,1.8.65,2.7.94-.54,2.74-.83,5.5-.89,8.28H3.81c.22-3.38,1.29-6.52,3.01-9.21ZM21.97,6.59v9.54c-3.15-.11-6.32-.58-9.49-1.41.5-2.03,1.14-4.05,1.91-6.06,2.3-1.18,4.86-1.9,7.58-2.08ZM31.78,8.57c.19.52.37,1.03.54,1.55-2.99.55-5.68,1.92-7.85,3.88v-7.41c2.61.17,5.07.84,7.3,1.94,0,.01,0,.03,0,.04ZM20.93,18.6c-.96,1.87-1.56,3.95-1.71,6.15h-8.07c.06-2.54.31-5.07.79-7.58,3.01.78,6.01,1.26,8.99,1.43ZM11.15,27.25h8.07c.19,2.2.81,4.27,1.8,6.13-3.03.14-6.05.6-9.04,1.38-.48-2.51-.75-5.02-.83-7.51ZM24.47,37.79c2.19,1.98,4.92,3.36,7.94,3.89-.2.58-.41,1.16-.63,1.74,0,.02,0,.04,0,.06-2.23,1.1-4.69,1.77-7.3,1.94v-7.63ZM10.97,10.88c-.33,1.04-.63,2.09-.9,3.14-.57-.18-1.14-.37-1.72-.58.79-.93,1.66-1.79,2.61-2.56ZM8.34,38.53c.59-.22,1.19-.42,1.78-.62.26,1.08.57,2.16.9,3.24-.98-.79-1.87-1.66-2.68-2.62Z"/>
  <path class="cls-2" d="M32.88,26.82l8.07-4.46c.81-.45.81-1.62,0-2.06l-2.95-1.63-4.11-2.28-1.01-.56c-.79-.43-1.75.13-1.75,1.03v8.93c0,.9.96,1.47,1.75,1.03Z"/>
  <path class="cls-2" d="M26.45,30.81c0,1.35,1.1,2.45,2.45,2.45s2.45-1.1,2.45-2.45-1.1-2.45-2.45-2.45-2.45,1.1-2.45,2.45Z"/>
  <path class="cls-2" d="M35.21,28.36c-1.35,0-2.45,1.1-2.45,2.45s1.1,2.45,2.45,2.45,2.45-1.1,2.45-2.45-1.1-2.45-2.45-2.45Z"/>
  <path class="cls-2" d="M43.96,30.81c0-1.35-1.1-2.45-2.45-2.45s-2.45,1.1-2.45,2.45,1.1,2.45,2.45,2.45,2.45-1.1,2.45-2.45Z"/>
</svg>