<svg width="32" height="32" viewBox="0 0 32 32" fill="none" xmlns="http://www.w3.org/2000/svg">
<g clip-path="url(#clip0_1_224)">
<path d="M16.0038 32.0076C24.8425 32.0076 32.0076 24.8425 32.0076 16.0038C32.0076 7.16516 24.8425 0 16.0038 0C7.16516 0 0 7.16516 0 16.0038C0 24.8425 7.16516 32.0076 16.0038 32.0076Z" fill="#0360E6"/>
<path d="M14.4199 22.4633C14.0376 22.4633 13.6553 22.3257 13.3647 22.0428L8.18052 17.0879C7.56881 16.5068 7.54587 15.5357 8.13464 14.924C8.72341 14.3123 9.68685 14.2893 10.2986 14.8781L14.397 18.8007L21.6916 11.5137C22.288 10.9173 23.2591 10.9173 23.8556 11.5137C24.452 12.1101 24.452 13.0812 23.8556 13.6776L15.5057 22.0275C15.2075 22.3257 14.8176 22.4786 14.4276 22.4786L14.4199 22.4633Z" fill="white"/>
</g>
<defs>
<clipPath id="clip0_1_224">
<rect width="32" height="32" fill="white"/>
</clipPath>
</defs>
</svg>
