<?xml version="1.0" encoding="UTF-8"?>
<svg id="Layer_1" data-name="Layer 1" xmlns="http://www.w3.org/2000/svg" viewBox="0 0 52 52">
  <defs>
    <style>
      .cls-1 {
        fill: #00215e;
      }
    </style>
  </defs>
  <path class="cls-1" d="M39.49,37.46l-5.65-5.65c1.67-2.09,2.67-4.73,2.67-7.6,0-6.74-5.48-12.22-12.22-12.22s-12.22,5.48-12.22,12.22,5.48,12.22,12.22,12.22c2.79,0,5.35-.95,7.41-2.52l5.68,5.68c.29.29.68.44,1.06.44s.77-.15,1.06-.44c.59-.59.59-1.54,0-2.12ZM15.07,24.2c0-5.08,4.14-9.22,9.22-9.22s9.22,4.14,9.22,9.22-4.14,9.22-9.22,9.22-9.22-4.14-9.22-9.22Z"/>
</svg>